<svg xmlns="http://www.w3.org/2000/svg" width="900" height="560" viewBox="0 0 900 560" fill="none">
  <rect width="900" height="560" rx="32" fill="#FFF3F7"/>
  <rect x="90" y="100" width="300" height="360" rx="18" fill="#fff" stroke="#F05A7B" stroke-width="3" opacity="0.9"/>
  <rect x="430" y="100" width="360" height="220" rx="18" fill="#fff" stroke="#F05A7B" stroke-width="3" opacity="0.9"/>
  <rect x="430" y="340" width="360" height="120" rx="14" fill="#FFE3ED" opacity="0.9"/>
  <rect x="120" y="140" width="240" height="26" rx="8" fill="#FFE3ED"/>
  <rect x="120" y="180" width="200" height="12" rx="6" fill="#F9C4D8"/>
  <rect x="120" y="210" width="200" height="12" rx="6" fill="#F9C4D8" opacity="0.8"/>
  <rect x="120" y="260" width="220" height="120" rx="12" fill="#FFF7FB" stroke="#F9C4D8" stroke-width="2"/>
  <rect x="460" y="140" width="300" height="28" rx="8" fill="#FFE3ED"/>
  <rect x="460" y="190" width="240" height="14" rx="7" fill="#F9C4D8"/>
  <rect x="460" y="216" width="240" height="14" rx="7" fill="#F9C4D8" opacity="0.8"/>
  <rect x="460" y="242" width="180" height="14" rx="7" fill="#F9C4D8" opacity="0.7"/>
  <text x="120" y="320" fill="#D74F75" font-family="DM Sans, Arial, sans-serif" font-size="18" font-weight="700">Article body preview</text>
  <text x="120" y="365" fill="#C74A6A" font-family="Nunito, Arial, sans-serif" font-size="32" font-weight="800">Portfolio CMS Mock</text>
</svg>
